<svg xmlns="http://www.w3.org/2000/svg" viewBox="0 0 2978.08 1669.34"><defs><style>.cls-1{font-size:190px;fill:#231f20;stroke:#fff;stroke-miterlimit:10;stroke-width:2px;font-family:Inconsolata-ExtraExpandedBlack, Inconsolata;font-weight:800;}</style></defs><g id="Layer_2" data-name="Layer 2"><g id="Layer_1-2" data-name="Layer 1"><text class="cls-1" transform="matrix(0.99, 0.15, -0.15, 0.99, 1029.86, 394.38)">I</text><text class="cls-1" transform="translate(1214.45 334.15) rotate(-45)">R<tspan x="142.49" y="0">R</tspan></text><text class="cls-1" transform="matrix(0.9, 0.44, -0.44, 0.9, 1393.25, 141.15)">E</text><text class="cls-1" transform="matrix(0.84, 0.54, -0.54, 0.84, 1517.13, 203.8)">V</text><text class="cls-1" transform="matrix(0.82, 0.57, -0.57, 0.82, 1635.65, 280.81)">E</text><text class="cls-1" transform="matrix(0.81, 0.59, -0.59, 0.81, 1751.68, 362.35)">R</text><text class="cls-1" transform="translate(1918.52 481.62) rotate(-7.89)">S</text><text class="cls-1" transform="translate(2059.8 462.04) rotate(-7.89)">I</text><text class="cls-1" transform="matrix(0.52, -0.86, 0.86, 0.52, 2274.89, 434.79)">B</text><text class="cls-1" transform="translate(2348.68 312.44) rotate(-58.9)">L</text><text class="cls-1" transform="translate(2404.06 218.71) rotate(36.29)">E</text><text class="cls-1" transform="translate(2518.9 303.04) rotate(36.29)"> </text><text class="cls-1" transform="translate(2633.76 387.4) rotate(36.29)">D</text><text class="cls-1" transform="matrix(0.81, 0.59, -0.59, 0.81, 2748.62, 471.75)">A</text><text class="cls-1" transform="translate(2824.31 539.37) rotate(106.09)">O</text><text class="cls-1" transform="matrix(-0.28, 0.96, -0.96, -0.28, 2784.8, 676.29)"> </text><text class="cls-1" transform="translate(2745.3 813.21) rotate(106.09)">I</text><text class="cls-1" transform="matrix(-0.28, 0.96, -0.96, -0.28, 2705.81, 950.1)">R</text><text class="cls-1" transform="translate(2675.72 1081.31) rotate(155.89)">R</text><text class="cls-1" transform="translate(2545.64 1139.52) rotate(155.89)">E</text><text class="cls-1" transform="matrix(-0.91, 0.41, -0.41, -0.91, 2415.56, 1197.74)">V</text><text class="cls-1" transform="translate(2285.49 1255.95) rotate(155.89)">E</text><text class="cls-1" transform="translate(2155.42 1314.15) rotate(155.89)">R</text><text class="cls-1" transform="translate(2025.34 1372.36) rotate(155.89)">S</text><text class="cls-1" transform="translate(1895.29 1430.56) rotate(155.89)">I</text><text class="cls-1" transform="translate(1776.05 1512.33) rotate(178.17)">B</text><text class="cls-1" transform="translate(1675.84 1477.45) rotate(-119.79)">L</text><text class="cls-1" transform="translate(1605.05 1353.8) rotate(-119.79)">E</text><text class="cls-1" transform="translate(1534.24 1230.14) rotate(-119.78)"> </text><text class="cls-1" transform="translate(1463.48 1106.46) rotate(-119.78)">D</text><text class="cls-1" transform="translate(1392.7 982.76) rotate(-119.78)">A</text><text class="cls-1" transform="translate(1232.13 834.95) rotate(143.49)">O</text><text class="cls-1" transform="translate(1117.61 919.73) rotate(143.49)"> </text><text class="cls-1" transform="translate(1003.08 1004.53) rotate(143.49)">I</text><text class="cls-1" transform="translate(888.55 1089.32) rotate(143.49)">R</text><text class="cls-1" transform="matrix(-0.99, -0.16, 0.16, -0.99, 792.65, 1205.78)">R</text><text class="cls-1" transform="translate(652.02 1182.8) rotate(-170.72)">E<tspan x="142.49" y="0">V</tspan></text><text class="cls-1" transform="translate(370.75 1136.82) rotate(-170.72)">E</text><text class="cls-1" transform="translate(188.87 1162.5) rotate(-92.54)">R</text><text class="cls-1" transform="matrix(-0.04, -1, 1, -0.04, 182.56, 1020.14)">S</text><text class="cls-1" transform="matrix(-0.04, -1, 1, -0.04, 176.24, 877.77)">I</text><text class="cls-1" transform="translate(169.93 735.42) rotate(-92.54)">B</text><text class="cls-1" transform="translate(163.62 593.06) rotate(-92.54)">L</text><text class="cls-1" transform="translate(136.04 458.17) rotate(-72.56)">E</text><text class="cls-1" transform="translate(194.02 376.54) rotate(-9.59)"> </text><text class="cls-1" transform="translate(334.66 352.79) rotate(-9.59)">D</text><text class="cls-1" transform="translate(479.09 312.39) rotate(-4.81)">A</text><text class="cls-1" transform="matrix(0.97, 0.24, -0.24, 0.97, 612.35, 301.08)">O</text><text class="cls-1" transform="translate(760.52 353.77) rotate(8.57)"> </text></g></g></svg>